<?xml version="1.0" encoding="utf-8"?>
<!-- Generator: Adobe Illustrator 24.3.0, SVG Export Plug-In . SVG Version: 6.00 Build 0)  -->
<svg version="1.1" id="Layer_1" xmlns="http://www.w3.org/2000/svg" xmlns:xlink="http://www.w3.org/1999/xlink" x="0px" y="0px"
	 viewBox="0 0 325 325" enable-background="new 0 0 325 325" xml:space="preserve">
<g id="su_ördeği_2_">
	<g>
		<path fill-rule="evenodd" clip-rule="evenodd" fill="#F9D63E" d="M171.042,252.928c-173.203,7.385-77.756-91.226-80.172-93.212
			c-2.416-1.985-14.452-24.354-4.447-53.248c10.006-28.892,34.317-38.739,62.107-33.407c30.287,5.813,47.223,44.435,30.392,70.219
			c-2.027,3.105-0.949,4.322,5.534,3.785c6.482-0.538,25.695,1.752,33.223-4.714c7.523-6.464,17.049-19.492,28.647-16.961
			c11.6,2.53,16.343,23.545,17.738,42.747c1.397,19.204,1.466,45.239-10.466,63.882
			C241.667,250.664,171.042,252.928,171.042,252.928z"/>
	</g>
	<path fill-rule="evenodd" clip-rule="evenodd" fill="#FFFFFF" d="M116.17,103.213c8.005,0.475,14.113,7.35,13.638,15.354
		c-0.475,8.006-7.352,14.113-15.355,13.638c-8.006-0.475-14.113-7.351-13.639-15.356
		C101.288,108.845,108.165,102.737,116.17,103.213z"/>
	<path fill-rule="evenodd" clip-rule="evenodd" fill="#343334" d="M115.831,108.954c4.834,0.286,8.523,4.439,8.235,9.273
		c-0.286,4.833-4.439,8.524-9.273,8.236c-4.836-0.286-8.524-4.439-8.236-9.273C106.843,112.355,110.995,108.668,115.831,108.954z"/>
	<path opacity="0.4" fill-rule="evenodd" clip-rule="evenodd" fill="#F7C425" d="M146.383,159.725
		c21.208-4.529,33.508-15.181,32.257-27.157c-0.7-6.693-8.543,7.802-29.849,12.351c-21.306,4.551-47.099-0.559-44.435,7.731
		C106.595,159.612,125.175,164.252,146.383,159.725z"/>
	<path opacity="0.4" fill-rule="evenodd" clip-rule="evenodd" fill="#F7C425" d="M251.601,225.18
		c-0.236-7.252-72.788,16.026-161.203-16.15c-9.532-3.469-5.543,14.24-5.67,16.364C82.856,256.601,252.606,256.147,251.601,225.18z"
		/>
	<g>
		<path fill-rule="evenodd" clip-rule="evenodd" fill="#FFD301" d="M90.406,147.414c3.043,10.224,19.499-1.008,18.053-4.265
			c-1.108-2.494-12.777-20.208-14.574-28.009C85.616,97.349,84.422,148.875,90.406,147.414z"/>
		<path fill-rule="evenodd" clip-rule="evenodd" fill="#FDCF02" d="M90.415,147.508c3.026,9.706,19.072-1.075,17.622-4.341
			c-1.111-2.501-12.414-19.959-14.216-27.78C85.531,97.549,84.416,148.972,90.415,147.508z"/>
		<path fill-rule="evenodd" clip-rule="evenodd" fill="#FBCC03" d="M90.425,147.602c3.009,9.189,18.645-1.142,17.191-4.416
			c-1.113-2.507-12.051-19.71-13.858-27.551C85.446,97.75,84.41,149.07,90.425,147.602z"/>
		<path fill-rule="evenodd" clip-rule="evenodd" fill="#F8C804" d="M90.435,147.695c2.992,8.671,18.218-1.209,16.76-4.492
			c-1.116-2.514-11.689-19.461-13.5-27.323C85.361,97.951,84.404,149.167,90.435,147.695z"/>
		<path fill-rule="evenodd" clip-rule="evenodd" fill="#F6C506" d="M90.444,147.789c2.975,8.153,17.79-1.275,16.33-4.567
			c-1.119-2.52-11.326-19.212-13.142-27.094C85.277,98.151,84.398,149.264,90.444,147.789z"/>
		<path fill-rule="evenodd" clip-rule="evenodd" fill="#F4C107" d="M90.454,147.883c2.959,7.636,17.363-1.342,15.899-4.642
			c-1.122-2.527-10.963-18.963-12.784-26.866C85.192,98.352,84.392,149.362,90.454,147.883z"/>
		<path fill-rule="evenodd" clip-rule="evenodd" fill="#F2BE08" d="M90.464,147.976c2.942,7.118,16.936-1.409,15.468-4.718
			c-1.125-2.533-10.601-18.714-12.426-26.637C85.107,98.552,84.387,149.459,90.464,147.976z"/>
		<path fill-rule="evenodd" clip-rule="evenodd" fill="#EFBA09" d="M90.473,148.07c2.925,6.6,16.509-1.476,15.037-4.793
			c-1.128-2.54-10.238-18.465-12.068-26.408C85.022,98.753,84.381,149.557,90.473,148.07z"/>
		<path fill-rule="evenodd" clip-rule="evenodd" fill="#EDB70A" d="M90.483,148.163c2.908,6.083,16.081-1.543,14.606-4.869
			c-1.13-2.546-9.875-18.216-11.71-26.18C84.937,98.953,84.375,149.654,90.483,148.163z"/>
		<path fill-rule="evenodd" clip-rule="evenodd" fill="#EBB30B" d="M90.493,148.257c2.892,5.565,15.654-1.61,14.175-4.944
			c-1.133-2.553-9.512-17.967-11.352-25.951C84.853,99.154,84.369,149.752,90.493,148.257z"/>
		<path fill-rule="evenodd" clip-rule="evenodd" fill="#E9B00C" d="M90.503,148.351c2.875,5.047,15.227-1.677,13.744-5.02
			c-1.136-2.56-9.15-17.718-10.994-25.722C84.768,99.354,84.363,149.849,90.503,148.351z"/>
		<path fill-rule="evenodd" clip-rule="evenodd" fill="#E6AC0E" d="M90.512,148.444c2.858,4.529,14.8-1.744,13.313-5.095
			c-1.139-2.566-8.787-17.469-10.636-25.494C84.683,99.555,84.358,149.947,90.512,148.444z"/>
		<path fill-rule="evenodd" clip-rule="evenodd" fill="#E4A90F" d="M90.522,148.538c2.841,4.012,14.373-1.811,12.882-5.171
			c-1.142-2.573-8.424-17.22-10.277-25.265C84.598,99.756,84.352,150.044,90.522,148.538z"/>
		<path fill-rule="evenodd" clip-rule="evenodd" fill="#E2A510" d="M90.532,148.631c2.824,3.494,13.945-1.878,12.451-5.246
			c-1.144-2.579-8.062-16.971-9.919-25.037C84.514,99.956,84.346,150.142,90.532,148.631z"/>
		<path fill-rule="evenodd" clip-rule="evenodd" fill="#E0A211" d="M90.541,148.725c2.808,2.976,13.518-1.945,12.02-5.321
			c-1.147-2.586-7.699-16.722-9.561-24.808C84.429,100.157,84.34,150.239,90.541,148.725z"/>
		<path fill-rule="evenodd" clip-rule="evenodd" fill="#DD9E12" d="M90.551,148.819c2.791,2.459,13.091-2.012,11.589-5.397
			c-1.15-2.592-7.336-16.473-9.203-24.579C84.344,100.357,84.334,150.336,90.551,148.819z"/>
		<path fill-rule="evenodd" clip-rule="evenodd" fill="#DB9B13" d="M90.561,148.912c2.774,1.941,12.664-2.079,11.158-5.472
			c-1.153-2.599-6.974-16.224-8.845-24.351C84.259,100.558,84.328,150.434,90.561,148.912z"/>
		<path fill-rule="evenodd" clip-rule="evenodd" fill="#D99714" d="M90.57,149.006c2.757,1.423,12.237-2.146,10.727-5.548
			c-1.156-2.605-6.611-15.976-8.487-24.122C84.174,100.758,84.323,150.531,90.57,149.006z"/>
		<path fill-rule="evenodd" clip-rule="evenodd" fill="#D79416" d="M90.58,149.1c2.74,0.906,11.809-2.213,10.296-5.623
			c-1.159-2.612-6.248-15.727-8.129-23.893C84.09,100.959,84.317,150.629,90.58,149.1z"/>
		<path fill-rule="evenodd" clip-rule="evenodd" fill="#D49017" d="M90.59,149.193c2.724,0.388,11.382-2.28,9.865-5.699
			c-1.161-2.618-5.885-15.478-7.771-23.665C84.005,101.16,84.311,150.726,90.59,149.193z"/>
		<path fill-rule="evenodd" clip-rule="evenodd" fill="#D28D18" d="M90.599,149.287c2.707-0.13,10.955-2.347,9.434-5.774
			c-1.164-2.625-5.523-15.229-7.413-23.436C83.92,101.36,84.305,150.824,90.599,149.287z"/>
		<path fill-rule="evenodd" clip-rule="evenodd" fill="#D08919" d="M90.609,149.38c2.69-0.648,10.528-2.414,9.003-5.849
			c-1.167-2.632-5.16-14.98-7.055-23.208C83.835,101.561,84.299,150.921,90.609,149.38z"/>
	</g>
	<g>
		<path fill-rule="evenodd" clip-rule="evenodd" fill="#DE5422" d="M83.484,109.608c-9.751-1.411-18.208-7.771-21.264-4.838
			c-3.054,2.936,1.134,15.875,6.955,20.719c5.819,4.844,7.151,3.77,2.706,6.851c-4.448,3.083-15.767,11.207-9.954,14.885
			c5.811,3.676,25.419,3.953,28.109,3.305c2.688-0.648,10.527-2.414,9.001-5.849c-1.165-2.631-5.16-14.98-7.053-23.206
			C89.837,112.158,93.235,111.019,83.484,109.608z"/>
		<path fill-rule="evenodd" clip-rule="evenodd" fill="#DC5221" d="M83.496,109.753c-9.751-1.411-18.148-7.74-21.204-4.807
			c-3.054,2.936,1.164,15.718,6.985,20.563c5.819,4.844,7.73,4.105,3.284,7.186c-4.448,3.083-16.348,10.804-10.651,14.455
			c5.695,3.648,25.392,3.885,28.082,3.237c2.688-0.648,10.505-2.415,8.98-5.851c-1.165-2.631-5.022-14.707-6.916-22.934
			C89.909,112.287,93.247,111.164,83.496,109.753z"/>
		<path fill-rule="evenodd" clip-rule="evenodd" fill="#DA5021" d="M83.508,109.898c-9.751-1.411-18.088-7.709-21.144-4.776
			c-3.054,2.936,1.194,15.562,7.015,20.406c5.819,4.844,8.308,4.44,3.862,7.522c-4.447,3.083-16.928,10.401-11.348,14.025
			c5.578,3.621,25.364,3.816,28.054,3.168c2.688-0.648,10.484-2.416,8.958-5.852c-1.165-2.631-4.884-14.434-6.778-22.661
			C89.982,112.415,93.259,111.309,83.508,109.898z"/>
		<path fill-rule="evenodd" clip-rule="evenodd" fill="#D74E20" d="M83.52,110.043c-9.751-1.411-18.028-7.678-21.084-4.745
			c-3.054,2.936,1.223,15.406,7.045,20.25c5.82,4.844,8.886,4.776,4.44,7.857c-4.447,3.083-17.508,9.999-12.045,13.594
			c5.462,3.594,25.337,3.748,28.027,3.1c2.688-0.648,10.463-2.417,8.937-5.853c-1.165-2.631-4.746-14.161-6.64-22.388
			C90.054,112.544,93.271,111.454,83.52,110.043z"/>
		<path fill-rule="evenodd" clip-rule="evenodd" fill="#D54C20" d="M83.532,110.188c-9.751-1.411-17.968-7.647-21.025-4.714
			c-3.054,2.936,1.253,15.25,7.074,20.094c5.82,4.844,9.465,5.111,5.018,8.193c-4.447,3.083-18.088,9.596-12.741,13.164
			c5.345,3.566,25.309,3.679,27.999,3.032c2.688-0.648,10.441-2.418,8.916-5.854c-1.166-2.631-4.608-13.888-6.502-22.115
			C90.126,112.672,93.283,111.599,83.532,110.188z"/>
		<path fill-rule="evenodd" clip-rule="evenodd" fill="#D34A1F" d="M83.544,110.333c-9.751-1.411-17.909-7.616-20.965-4.683
			c-3.054,2.936,1.283,15.094,7.104,19.938c5.82,4.844,10.043,5.447,5.596,8.528c-4.447,3.083-18.669,9.193-13.438,12.734
			c5.229,3.539,25.282,3.611,27.972,2.963c2.688-0.648,10.42-2.419,8.895-5.855c-1.166-2.631-4.471-13.615-6.364-21.842
			C90.199,112.801,93.295,111.744,83.544,110.333z"/>
		<path fill-rule="evenodd" clip-rule="evenodd" fill="#D1491F" d="M83.556,110.478c-9.751-1.411-17.849-7.585-20.905-4.651
			c-3.054,2.936,1.313,14.937,7.134,19.781c5.82,4.844,10.621,5.782,6.175,8.864c-4.447,3.083-19.249,8.791-14.135,12.304
			c5.112,3.512,25.255,3.542,27.944,2.895c2.688-0.648,10.399-2.42,8.873-5.856c-1.166-2.631-4.333-13.342-6.226-21.569
			C90.271,112.929,93.307,111.889,83.556,110.478z"/>
		<path fill-rule="evenodd" clip-rule="evenodd" fill="#CF471E" d="M83.568,110.622c-9.751-1.411-17.789-7.553-20.845-4.62
			c-3.054,2.936,1.343,14.781,7.164,19.625c5.82,4.844,11.199,6.117,6.753,9.199c-4.447,3.083-19.829,8.388-14.832,11.873
			c4.996,3.484,25.227,3.474,27.917,2.826c2.688-0.648,10.378-2.421,8.852-5.857c-1.166-2.631-4.195-13.07-6.089-21.296
			C90.343,113.057,93.319,112.034,83.568,110.622z"/>
		<path fill-rule="evenodd" clip-rule="evenodd" fill="#CC451E" d="M83.58,110.767c-9.752-1.411-17.729-7.522-20.785-4.589
			c-3.054,2.936,1.373,14.625,7.194,19.469c5.82,4.844,11.778,6.453,7.331,9.535c-4.447,3.083-20.41,7.985-15.529,11.443
			c4.88,3.457,25.2,3.405,27.89,2.758c2.688-0.648,10.356-2.422,8.831-5.858c-1.166-2.631-4.057-12.797-5.951-21.024
			C90.415,113.186,93.331,112.179,83.58,110.767z"/>
		<path fill-rule="evenodd" clip-rule="evenodd" fill="#CA431D" d="M83.592,110.912c-9.752-1.411-17.669-7.491-20.725-4.558
			c-3.054,2.936,1.403,14.469,7.224,19.313c5.82,4.844,12.356,6.788,7.909,9.87c-4.447,3.082-20.99,7.582-16.225,11.013
			c4.763,3.43,25.173,3.337,27.862,2.689c2.688-0.648,10.335-2.423,8.81-5.859c-1.166-2.631-3.919-12.524-5.813-20.751
			C90.488,113.314,93.343,112.324,83.592,110.912z"/>
		<path fill-rule="evenodd" clip-rule="evenodd" fill="#C8411D" d="M83.604,111.057c-9.752-1.411-17.609-7.46-20.665-4.527
			c-3.054,2.936,1.432,14.313,7.253,19.157c5.82,4.844,12.934,7.123,8.487,10.206c-4.447,3.082-21.57,7.18-16.922,10.583
			c4.647,3.403,25.145,3.268,27.835,2.621c2.688-0.648,10.314-2.425,8.788-5.86c-1.166-2.631-3.781-12.251-5.675-20.478
			C90.56,113.443,93.355,112.469,83.604,111.057z"/>
		<path fill-rule="evenodd" clip-rule="evenodd" fill="#C63F1C" d="M83.616,111.202c-9.752-1.411-17.55-7.429-20.605-4.496
			c-3.054,2.936,1.462,14.156,7.283,19c5.82,4.844,13.512,7.459,9.065,10.541c-4.447,3.082-22.15,6.777-17.619,10.153
			c4.53,3.375,25.118,3.2,27.807,2.553c2.689-0.648,10.292-2.426,8.767-5.861c-1.166-2.631-3.643-11.978-5.537-20.205
			C90.632,113.571,93.367,112.614,83.616,111.202z"/>
		<path fill-rule="evenodd" clip-rule="evenodd" fill="#C43D1C" d="M83.628,111.347c-9.752-1.411-17.49-7.398-20.545-4.465
			c-3.054,2.936,1.492,14,7.313,18.844c5.82,4.844,14.091,7.794,9.644,10.877c-4.446,3.082-22.731,6.374-18.316,9.722
			c4.414,3.348,25.09,3.131,27.78,2.484c2.689-0.648,10.271-2.427,8.746-5.862c-1.166-2.631-3.505-11.705-5.399-19.932
			C90.704,113.7,93.379,112.758,83.628,111.347z"/>
		<path fill-rule="evenodd" clip-rule="evenodd" fill="#C23B1B" d="M83.64,111.492c-9.752-1.411-17.43-7.367-20.486-4.434
			c-3.054,2.936,1.522,13.844,7.343,18.688c5.82,4.844,14.669,8.13,10.222,11.212c-4.446,3.082-23.311,5.971-19.013,9.292
			c4.297,3.321,25.063,3.063,27.752,2.416c2.689-0.649,10.25-2.428,8.725-5.863c-1.166-2.631-3.367-11.432-5.262-19.659
			C90.777,113.828,93.391,112.903,83.64,111.492z"/>
		<path fill-rule="evenodd" clip-rule="evenodd" fill="#BF391B" d="M83.652,111.637c-9.752-1.411-17.37-7.336-20.426-4.403
			c-3.054,2.936,1.552,13.688,7.373,18.532c5.821,4.844,15.247,8.465,10.8,11.548c-4.446,3.082-23.891,5.569-19.71,8.862
			c4.181,3.293,25.036,2.994,27.725,2.347c2.689-0.649,10.229-2.429,8.703-5.864c-1.166-2.631-3.229-11.159-5.124-19.387
			C90.849,113.957,93.403,113.048,83.652,111.637z"/>
		<path fill-rule="evenodd" clip-rule="evenodd" fill="#BD371A" d="M83.664,111.782c-9.752-1.411-17.31-7.305-20.366-4.372
			c-3.054,2.935,1.582,13.531,7.402,18.375c5.821,4.844,15.825,8.8,11.378,11.883c-4.446,3.082-24.472,5.166-20.406,8.432
			c4.065,3.266,25.008,2.926,27.697,2.279c2.689-0.649,10.207-2.43,8.682-5.865c-1.167-2.631-3.091-10.886-4.986-19.114
			C90.921,114.085,93.415,113.193,83.664,111.782z"/>
		<path fill-rule="evenodd" clip-rule="evenodd" fill="#BB361A" d="M83.676,111.927c-9.752-1.411-17.25-7.274-20.306-4.341
			c-3.054,2.935,1.611,13.375,7.432,18.219c5.821,4.844,16.404,9.136,11.956,12.219c-4.446,3.082-25.052,4.763-21.103,8.001
			c3.948,3.239,24.981,2.857,27.67,2.21c2.689-0.649,10.186-2.431,8.661-5.866c-1.167-2.631-2.953-10.613-4.848-18.841
			C90.994,114.213,93.427,113.338,83.676,111.927z"/>
		<path fill-rule="evenodd" clip-rule="evenodd" fill="#B93419" d="M83.688,112.072c-9.752-1.411-17.191-7.243-20.246-4.31
			c-3.054,2.935,1.641,13.219,7.462,18.063c5.821,4.844,16.982,9.471,12.534,12.554c-4.446,3.082-25.632,4.36-21.8,7.571
			c3.832,3.211,24.954,2.789,27.643,2.142c2.689-0.649,10.165-2.432,8.639-5.867c-1.167-2.631-2.815-10.341-4.71-18.568
			C91.066,114.342,93.439,113.483,83.688,112.072z"/>
		<path fill-rule="evenodd" clip-rule="evenodd" fill="#B73219" d="M83.7,112.217c-9.753-1.411-17.131-7.212-20.186-4.279
			c-3.054,2.935,1.671,13.063,7.492,17.907c5.821,4.844,17.56,9.806,13.112,12.89c-4.446,3.082-26.212,3.958-22.497,7.141
			c3.715,3.184,24.926,2.72,27.615,2.074c2.689-0.649,10.143-2.433,8.618-5.868c-1.167-2.631-2.677-10.068-4.572-18.295
			C91.138,114.47,93.451,113.628,83.7,112.217z"/>
		<path fill-rule="evenodd" clip-rule="evenodd" fill="#B43018" d="M83.712,112.362c-9.753-1.411-17.071-7.181-20.126-4.248
			c-3.054,2.935,1.701,12.907,7.522,17.751c5.821,4.844,18.138,10.142,13.691,13.225c-4.446,3.081-26.793,3.555-23.194,6.711
			c3.599,3.157,24.899,2.652,27.588,2.005c2.689-0.649,10.122-2.435,8.597-5.869c-1.167-2.631-2.539-9.795-4.434-18.022
			C91.21,114.599,93.463,113.773,83.712,112.362z"/>
		<path fill-rule="evenodd" clip-rule="evenodd" fill="#B22E18" d="M83.724,112.507c-9.753-1.411-17.011-7.15-20.066-4.217
			c-3.054,2.935,1.731,12.75,7.551,17.594c5.821,4.844,18.717,10.477,14.269,13.561c-4.446,3.081-27.373,3.152-23.89,6.281
			c3.483,3.129,24.871,2.583,27.56,1.937c2.689-0.649,10.101-2.436,8.576-5.87c-1.167-2.631-2.401-9.522-4.297-17.749
			C91.283,114.727,93.475,113.918,83.724,112.507z"/>
		<path fill-rule="evenodd" clip-rule="evenodd" fill="#B02C17" d="M83.736,112.652c-9.753-1.411-16.951-7.119-20.006-4.186
			c-3.054,2.935,1.761,12.594,7.581,17.438c5.821,4.844,19.295,10.813,14.847,13.896c-4.446,3.081-27.953,2.749-24.587,5.85
			c3.366,3.102,24.844,2.515,27.533,1.868c2.689-0.649,10.08-2.437,8.554-5.872c-1.167-2.631-2.263-9.249-4.159-17.477
			C91.355,114.856,93.487,114.063,83.736,112.652z"/>
	</g>
	<linearGradient id="SVGID_1_" gradientUnits="userSpaceOnUse" x1="85.0648" y1="129.4021" x2="54.7984" y2="144.164">
		<stop  offset="0" style="stop-color:#E65428"/>
		<stop  offset="1" style="stop-color:#FFFFFF"/>
	</linearGradient>
	<path fill-rule="evenodd" clip-rule="evenodd" fill="url(#SVGID_1_)" d="M74.372,131.061c0,0-11.649,8.134-12.082,10.366
		c-0.431,2.231,5.537,1.152,6.256-1.44c0.719-2.59,3.595-4.822,5.032-6.837C75.018,131.134,74.372,131.061,74.372,131.061z"/>
	<g>
		<linearGradient id="SVGID_2_" gradientUnits="userSpaceOnUse" x1="183.7778" y1="223.2776" x2="182.7692" y2="194.3958">
			<stop  offset="0" style="stop-color:#C87F1D"/>
			<stop  offset="1" style="stop-color:#FFD301"/>
		</linearGradient>
		<path fill-rule="evenodd" clip-rule="evenodd" fill="url(#SVGID_2_)" d="M124.103,196.059c0,0,3.954,16.727,35.002,20.884
			c31.05,4.155,73.072-6.045,82.362-25.604C226.986,242.759,121.695,224.181,124.103,196.059z"/>
	</g>
	<path fill="#F9B624" d="M122.486,195.448c-0.086-1.799,1.307-3.328,3.107-3.411c1.799-0.086,3.326,1.306,3.412,3.104
		c0.002,0.042,0.329,13.964,34.114,18.486c18.486,2.474,35.588,1.722,49.189-2.688c12.198-3.958,21.53-10.872,26.371-21.064
		c0.77-1.632,2.715-2.33,4.346-1.559c1.631,0.768,2.328,2.715,1.559,4.346c-5.675,11.95-16.382,19.982-30.283,24.489
		c-14.534,4.713-32.617,5.543-52.027,2.944C123.025,214.842,122.487,195.504,122.486,195.448z"/>
	<path fill-rule="evenodd" clip-rule="evenodd" fill="#F7C425" d="M182.652,195.126c18.025,0,58.935-17.93,60.373-6.808
		c1.437,11.12-28.723,28.835-60.373,30.19c-26.217,1.123-56.556-4.703-57.06-26.47C125.305,179.62,164.627,195.126,182.652,195.126z
		"/>
	<linearGradient id="SVGID_3_" gradientUnits="userSpaceOnUse" x1="78.9606" y1="139.8202" x2="81.7327" y2="151.8275">
		<stop  offset="0" style="stop-color:#CC2020"/>
		<stop  offset="1" style="stop-color:#822A26"/>
	</linearGradient>
	<path fill-rule="evenodd" clip-rule="evenodd" fill="url(#SVGID_3_)" d="M89.034,147.049c-5.883,0.346-17.142-0.793-20.224-0.53
		c-4.287,0.365-2.856-0.707,1.17-1.438c4.028-0.731,17.87-3.714,22.55-3.933C94.593,141.052,94.946,146.703,89.034,147.049z"/>
</g>
</svg>
